<svg width="32" height="32" viewBox="0 0 32 32" fill="none" xmlns="http://www.w3.org/2000/svg">
<rect x="32" width="32" height="32" rx="8" transform="rotate(90 32 0)" fill="url(#paint0_linear_3543_8517)"/>
<path d="M21.3459 10.4387C23.9204 10.4387 25.6496 12.0232 25.6497 14.3811V20.0471C25.6494 20.7254 25.0998 21.2754 24.4211 21.2756C23.8788 21.2756 23.4182 20.9232 23.2551 20.4358C22.4371 20.9661 21.4626 21.2756 20.4172 21.2756H20.051C18.2706 21.2755 16.8225 19.8275 16.8225 18.0481C16.8226 16.2688 18.2707 14.8217 20.051 14.8215H23.1917V14.3811C23.1916 13.7077 22.9266 13.4277 22.7278 13.2756C22.4075 13.0307 21.9171 12.8958 21.3459 12.8958C20.5549 12.8958 19.9534 13.1424 19.6526 13.5901C19.274 14.1533 18.5101 14.3027 17.9465 13.9241C17.3833 13.5457 17.2341 12.7831 17.6125 12.22C18.3847 11.0718 19.7102 10.4388 21.3459 10.4387ZM20.4475 16.6458C19.8423 16.6544 19.3538 17.1471 19.3538 17.7542C19.3539 18.361 19.8505 18.8624 20.4631 18.8625V18.8655H20.7678C21.5939 18.8655 22.337 18.5022 22.845 17.927C23.1071 17.63 23.2493 17.2459 23.2493 16.8499V16.6458H20.4797L20.4641 16.6448C20.4587 16.6448 20.4529 16.6454 20.4475 16.6458Z" fill="white"/>
<path d="M13.9824 10.4H13.9798C13.2994 10.4 12.7477 10.9854 12.7477 11.7073V16.3419L11.1089 14.1104L8.89889 11.101C8.6733 10.7935 8.37938 10.5847 8.07497 10.4864C7.93831 10.4307 7.78972 10.4 7.63462 10.4H7.63209C6.95169 10.4 6.39999 10.9854 6.39999 11.7073V18.0242C6.39999 18.09 6.4018 19.9656 6.40542 20.0303C6.49978 21.7104 8.86672 21.623 8.86672 19.9396V15.31L11.3587 18.7035C11.4047 18.766 12.7152 20.5473 12.7633 20.6069C13.0073 20.9076 13.2731 21.0871 13.5334 21.1699C14.255 21.4358 15.2141 21.0113 15.2141 19.9396V11.7073C15.2141 10.9854 14.6624 10.4 13.982 10.4H13.9824Z" fill="white"/>
<defs>
<linearGradient id="paint0_linear_3543_8517" x1="52" y1="9.6" x2="75.974" y2="0.407" gradientUnits="userSpaceOnUse">
<stop stop-color="#0D4DEE"/>
<stop offset="0.974894" stop-color="#BBD1F3"/>
</linearGradient>
</defs>
</svg>
