<svg width="87" height="13" viewBox="0 0 87 13" fill="none" xmlns="http://www.w3.org/2000/svg">
<path d="M8.47874 12.9513C8.12757 12.95 7.77166 12.9239 7.42222 12.8732C7.06198 12.8229 6.70563 12.7366 6.36355 12.6168C6.03228 12.5018 5.71572 12.3463 5.42294 12.1557C5.14184 11.9723 4.90095 11.7413 4.70591 11.4691C4.60904 11.3338 4.53811 11.184 4.49573 11.0238C4.45205 10.8628 4.43735 10.6975 4.45162 10.5317C4.46589 10.372 4.50914 10.2178 4.58093 10.074C4.65142 9.93616 4.75867 9.81851 4.89101 9.73392C5.10118 9.5686 5.34293 9.47027 5.59679 9.44537C5.66988 9.43764 5.74383 9.4342 5.81691 9.4342C5.9912 9.4342 6.16505 9.45524 6.33414 9.49732C6.45134 9.52824 6.56119 9.58106 6.66022 9.65405C6.76574 9.73693 6.88078 9.81722 7.00014 9.89151C7.10912 9.95763 7.20426 10.0139 7.28513 10.0611C7.37768 10.1156 7.47671 10.1603 7.57921 10.1942C7.69295 10.2307 7.81015 10.2565 7.92907 10.2715C8.07049 10.2883 8.21407 10.2964 8.35635 10.2964H8.44544C8.89433 10.2968 9.33415 10.1161 9.65115 9.8009C9.98501 9.47199 10.1541 8.91464 10.1541 8.14432L10.155 1.43639C10.1498 1.21268 10.1917 0.997126 10.2791 0.794025C10.3513 0.626134 10.4629 0.47413 10.6013 0.35433C10.7397 0.237536 10.8984 0.15037 11.0731 0.0954079C11.2586 0.0370109 11.4515 0.0078125 11.6461 0.0078125H11.7058C12.0781 0.0078125 12.4449 0.132335 12.7385 0.359483C13.0434 0.62141 13.2069 1.02031 13.1727 1.42437V8.25553C13.1922 9.00439 13.0655 9.7365 12.796 10.433C12.5772 10.9839 12.226 11.4854 11.7815 11.8826C11.3546 12.2536 10.84 12.5348 10.2934 12.6946C9.71515 12.865 9.11662 12.9518 8.51333 12.9518H8.47874V12.9513Z" fill="#1E293B"/>
<path d="M16.0583 12.9518C15.913 12.9518 15.7681 12.9303 15.6275 12.8874C15.253 12.7736 14.9456 12.5219 14.7626 12.1789C14.5801 11.8371 14.5429 11.445 14.6575 11.0758C14.6636 11.0564 14.6696 11.0375 14.6766 11.0187L18.0857 1.23114C18.2163 0.841258 18.4866 0.51621 18.8473 0.315685C19.2032 0.114301 19.6071 0.0078125 20.0162 0.0078125C20.4093 0.0103888 20.7933 0.118595 21.1263 0.320408C21.4766 0.524368 21.7365 0.846411 21.8598 1.22771L25.2317 10.9718C25.3654 11.3446 25.3446 11.7452 25.1738 12.1016C25.0025 12.4588 24.7007 12.7285 24.324 12.8612C24.1622 12.9178 23.9944 12.9466 23.8245 12.9466C23.1935 12.9466 22.6279 12.5507 22.4168 11.9616C22.4116 11.947 22.4064 11.9315 22.4017 11.9165L22.1037 10.977H17.7527L17.4586 11.9268C17.2688 12.54 16.7061 12.9518 16.0592 12.9518H16.0583ZM18.5004 8.58015H21.3525L19.9777 3.57432L18.5004 8.58015Z" fill="#1E293B"/>
<path d="M35.3495 12.9448C35.0273 12.9448 34.7124 12.8851 34.4136 12.7666C34.0594 12.6421 33.7601 12.4008 33.5694 12.0856L29.3806 4.55625L29.3732 11.4467C29.3637 12.1534 28.7743 12.7293 28.059 12.7293H28.0404C27.3229 12.7198 26.7529 12.1556 26.7434 11.445L26.7503 1.47925C26.7464 1.27529 26.791 1.07219 26.8796 0.890554C26.9631 0.723092 27.0781 0.575812 27.2213 0.453436C27.364 0.33063 27.5249 0.234876 27.6996 0.168321C27.8704 0.101336 28.0482 0.0562501 28.2281 0.033063C28.2994 0.0261928 28.3747 0.0223283 28.4486 0.0223283C28.7518 0.0223283 29.0467 0.0811547 29.3257 0.197519C29.6734 0.329771 29.9683 0.574094 30.1573 0.88669L34.0962 7.99953L34.3457 7.93598L34.3522 1.36632C34.3267 0.980297 34.4711 0.61188 34.7483 0.350382C34.9992 0.124952 35.3257 0 35.6673 0C36.009 0 36.3359 0.124952 36.5889 0.352529C36.8631 0.61231 37.0075 0.978579 36.9829 1.35644L36.9755 11.5562C36.9803 11.755 36.9362 11.9512 36.8475 12.1264C36.7641 12.284 36.6516 12.4244 36.5132 12.542C36.3744 12.6597 36.2183 12.7533 36.0488 12.8199C35.8849 12.8864 35.7136 12.9255 35.5389 12.9371C35.4749 12.9418 35.4126 12.944 35.3503 12.944L35.3495 12.9448Z" fill="#1E293B"/>
<path d="M43.4541 12.9455C42.8642 12.9455 42.2765 12.8695 41.707 12.7188C41.1175 12.5728 40.5718 12.3181 40.0839 11.9622C39.5879 11.5968 39.1749 11.1158 38.889 10.5714C38.5578 9.9054 38.3965 9.15912 38.4224 8.41455L38.3934 1.4301C38.3887 1.20725 38.4311 0.991696 38.5188 0.788595C38.5915 0.621133 38.7031 0.4687 38.8419 0.348471C38.9798 0.232106 39.1386 0.14494 39.3133 0.0895485C39.4988 0.0311515 39.6921 0.00195312 39.8872 0.00195312H39.9455C40.3179 0.00195312 40.6846 0.126476 40.9783 0.353623C41.2832 0.615121 41.4466 1.01402 41.4129 1.41851L41.4414 8.53736C41.435 8.82505 41.4985 9.11747 41.6248 9.38025C41.7407 9.61685 41.9029 9.82081 42.1066 9.98741C42.299 10.1463 42.5174 10.2678 42.7553 10.3472C42.9789 10.4271 43.2141 10.4679 43.4541 10.4679C43.6941 10.4679 43.9303 10.4271 44.156 10.3464C44.3913 10.2669 44.6092 10.1459 44.8021 9.98698C45.005 9.82038 45.1667 9.61642 45.2826 9.38154C45.4097 9.11747 45.4729 8.82462 45.4664 8.5335L45.4396 1.4301C45.4344 1.20682 45.4763 0.991267 45.5637 0.788165C45.6359 0.620703 45.7475 0.46827 45.8863 0.348471C46.0247 0.231677 46.1834 0.14451 46.3577 0.0895485C46.5432 0.0311515 46.7361 0.00195312 46.9311 0.00195312H46.9904C47.3623 0.00195312 47.7295 0.126476 48.0236 0.353623C48.328 0.615551 48.4915 1.01445 48.4573 1.41851L48.485 8.41026C48.5114 9.15869 48.3501 9.90625 48.0175 10.5744C47.7334 11.1158 47.3204 11.5963 46.8239 11.9626C46.3365 12.3181 45.7912 12.5723 45.203 12.7183C44.6317 12.869 44.0436 12.9455 43.4537 12.9455H43.4541Z" fill="#1E293B"/>
<path d="M1.5133 12.9513C1.46832 12.9513 1.42378 12.9495 1.37837 12.9457C0.645772 12.8817 0.0671342 12.3089 0.00226446 11.5837L0.00399431 5.5503C-0.0280081 5.16085 0.133734 4.79243 0.437324 4.55884C0.751726 4.35145 1.12494 4.24023 1.512 4.24023C1.89906 4.24023 2.27357 4.35273 2.59489 4.56485C2.89156 4.79372 3.05201 5.1587 3.02 5.53828V11.5965C2.95168 12.3536 2.29 12.9517 1.5133 12.9517V12.9513Z" fill="#1E293B"/>
<path d="M1.511 2.99379C0.679371 2.99379 0.00256348 2.32394 0.00256348 1.5008C0.00256348 0.67766 0.678938 0.0078125 1.511 0.0078125C2.34306 0.0078125 3.01944 0.67766 3.01944 1.5008C3.01944 2.32394 2.34263 2.99379 1.511 2.99379Z" fill="#1E293B"/>
<path d="M54.1263 12.95C53.4504 12.95 52.7731 12.8727 52.1141 12.7203C51.5372 12.6005 50.9862 12.3527 50.5191 12.0036C50.3833 11.889 50.2631 11.7516 50.1649 11.5979C50.0676 11.4497 49.9959 11.2891 49.9509 11.1191C49.9068 10.9521 49.899 10.7812 49.9275 10.6103C49.9591 10.4256 50.0274 10.2526 50.1308 10.0959C50.2363 9.93526 50.3864 9.80988 50.565 9.73302C50.7527 9.64585 50.952 9.59647 51.1583 9.58488C51.1925 9.58187 51.2241 9.58058 51.2556 9.58058C51.426 9.58058 51.5947 9.62009 51.7439 9.6948C51.9052 9.7897 52.0643 9.88159 52.2131 9.96532C52.4432 10.1057 52.6953 10.2114 52.9604 10.2779C53.3323 10.3625 53.7112 10.4054 54.0883 10.4054C54.141 10.4054 54.1938 10.4046 54.2466 10.4029C54.2794 10.405 54.3192 10.4063 54.3586 10.4063C54.7115 10.4063 55.0617 10.314 55.3727 10.1392C55.6754 9.93225 55.8436 9.59776 55.8276 9.24094C55.8229 9.04599 55.7463 8.85835 55.6127 8.71408C55.4575 8.54232 55.2728 8.40191 55.0648 8.29714C54.8139 8.16532 54.5514 8.04723 54.2863 7.94633C53.9953 7.8334 53.6787 7.72176 53.3462 7.61484C53.2203 7.57233 53.0845 7.52467 52.9418 7.47185C52.8073 7.42204 52.6871 7.37438 52.5846 7.33015C52.0466 7.11718 51.5653 6.8063 51.1531 6.40568C50.8067 6.06345 50.5334 5.66369 50.341 5.21799C50.1624 4.79976 50.0694 4.35749 50.0646 3.90234C50.0564 3.46479 50.1213 3.03239 50.2584 2.61674C50.5014 1.8155 51.0299 1.13277 51.746 0.693506C52.5137 0.242647 53.3933 0.00390625 54.2881 0.00390625C54.3447 0.00390625 54.4014 0.00476509 54.4585 0.00648265H54.5337C54.8702 0.00648265 55.2105 0.0249463 55.5452 0.0614445C55.8199 0.0923605 56.0958 0.140452 56.3656 0.203143C56.5715 0.251235 56.7734 0.31779 56.9655 0.401521C57.1696 0.494699 57.3188 0.565548 57.4481 0.631245C57.7902 0.812876 58.073 1.08769 58.2646 1.42476C58.4501 1.72834 58.4942 2.0946 58.3874 2.43253C58.316 2.69575 58.1495 2.91474 57.9169 3.05214C57.6903 3.17495 57.4312 3.24065 57.1704 3.24065H57.1497C57.0269 3.23807 56.9036 3.21832 56.7838 3.18182C56.6753 3.15563 56.5771 3.11355 56.4876 3.05601C56.2454 2.90229 55.9838 2.78292 55.7083 2.70133C55.3485 2.6 54.9796 2.5489 54.6103 2.5489C54.5718 2.5489 54.5337 2.54976 54.4952 2.55062C54.4701 2.5489 54.4394 2.54804 54.4087 2.54804C54.0891 2.54804 53.7756 2.63864 53.5014 2.80997C53.2467 3.00148 53.0984 3.29217 53.0914 3.6009H53.0901L53.0914 3.66531C53.1027 4.05692 53.3306 4.4 53.6865 4.56145C54.1631 4.82982 54.6751 5.05009 55.2032 5.2124L55.9877 5.48421C56.4266 5.6405 56.8461 5.85091 57.2327 6.10854C57.5917 6.34814 57.9069 6.64227 58.1699 6.98321C58.4294 7.32114 58.6214 7.69857 58.7407 8.1052C58.8674 8.55134 58.9146 9.01293 58.8804 9.47753C58.854 10.4939 58.3684 11.4231 57.5484 12.0303C56.7267 12.6387 55.585 12.9474 54.1549 12.9474H54.1259L54.1263 12.95Z" fill="#1E293B"/>
<path d="M81.8517 0.107422C84.9313 0.107476 87.0002 1.99081 87.0002 4.79297V11.5254C87.0001 12.3318 86.3416 12.9854 85.5295 12.9854C84.881 12.9852 84.331 12.5673 84.1359 11.9883C83.1573 12.6186 81.991 12.9853 80.7404 12.9854H80.3029C78.1731 12.9853 76.4406 11.2651 76.4406 9.15039C76.4406 7.03566 78.173 5.31545 80.3029 5.31543H84.0598V4.79297C84.0598 3.99266 83.7429 3.6593 83.5051 3.47852C83.1219 3.18741 82.535 3.02736 81.8517 3.02734C80.9055 3.02734 80.1862 3.32053 79.8264 3.85254C79.3735 4.52188 78.4595 4.69998 77.7853 4.25C77.1112 3.80042 76.9322 2.89304 77.3849 2.22363C78.251 0.944397 79.6994 0.203779 81.4894 0.116211L81.8517 0.107422ZM80.7766 7.4834C80.0528 7.49389 79.4689 8.07953 79.4689 8.80078C79.4689 9.52216 80.0631 10.1182 80.7961 10.1182V10.1221H81.1603C82.1484 10.122 83.0372 9.68938 83.6447 9.00586C83.9582 8.65293 84.1291 8.1971 84.1291 7.72656V7.4834H80.7766Z" fill="#1E293B"/>
<path d="M73.3375 0.0605469H73.3345C72.5206 0.0605469 71.8607 0.756158 71.8607 1.61408V7.12186L69.9003 4.46995L67.2567 0.893563C66.9868 0.528152 66.6352 0.279965 66.2711 0.163171C66.1076 0.097045 65.9299 0.0605469 65.7443 0.0605469H65.7413C64.9274 0.0605469 64.2675 0.756158 64.2675 1.61408V9.1211C64.2675 9.19925 64.2696 11.4282 64.2739 11.5051C64.3868 13.5017 67.2182 13.3978 67.2182 11.3973V5.89552L70.1991 9.92835C70.2541 10.0026 71.8218 12.1195 71.8793 12.1904C72.1712 12.5476 72.489 12.761 72.8004 12.8594C73.6636 13.1754 74.811 12.6709 74.811 11.3973V1.61408C74.811 0.756158 74.151 0.0605469 73.3371 0.0605469H73.3375Z" fill="#1E293B"/>
</svg>
